<svg width="1440" height="1200" viewBox="0 0 1440 1200" fill="none" xmlns="http://www.w3.org/2000/svg">
  <g clip-path="url(#clip0_762_41)">
    <!-- Вертикальные полосы -->
    <g filter="url(#blur6)">
      <rect x="0" y="97" width="76" height="1250" fill="url(#paint_linear_shared)"/>
      <rect x="76" y="97" width="75" height="1250" fill="url(#paint_linear_shared)"/>
      <rect x="151" y="97" width="77" height="1250" fill="url(#paint_linear_shared)"/>
      <rect x="228" y="97" width="75" height="1250" fill="url(#paint_linear_shared)"/>
      <rect x="303" y="97" width="76" height="1250" fill="url(#paint_linear_shared)"/>
      <rect x="379" y="97" width="76" height="1250" fill="url(#paint_linear_shared)"/>
      <rect x="455" y="97" width="75" height="1250" fill="url(#paint_linear_shared)"/>
      <rect x="530" y="97" width="77" height="1250" fill="url(#paint_linear_shared)"/>
      <rect x="607" y="97" width="75" height="1250" fill="url(#paint_linear_shared)"/>
      <rect x="682" y="97" width="76" height="1250" fill="url(#paint_linear_shared)"/>
      <rect x="758" y="97" width="76" height="1250" fill="url(#paint_linear_shared)"/>
      <rect x="834" y="97" width="75" height="1250" fill="url(#paint_linear_shared)"/>
      <rect x="909" y="97" width="77" height="1250" fill="url(#paint_linear_shared)"/>
      <rect x="986" y="97" width="75" height="1250" fill="url(#paint_linear_shared)"/>
      <rect x="1061" y="97" width="76" height="1250" fill="url(#paint_linear_shared)"/>
      <rect x="1137" y="97" width="76" height="1250" fill="url(#paint_linear_shared)"/>
      <rect x="1213" y="97" width="75" height="1250" fill="url(#paint_linear_shared)"/>
      <rect x="1288" y="97" width="77" height="1250" fill="url(#paint_linear_shared)"/>
      <rect x="1365" y="97" width="75" height="1250" fill="url(#paint_linear_shared)"/>
    </g>

    <!-- Радиальный градиент -->
    <rect x="1440" y="1300" width="1440" height="1300" transform="rotate(-180 1440 1300)" fill="url(#paint_radial)"/>

    <!-- Нижняя затемненная область -->
    <g filter="url(#filter19_f_762_41)">
      <path d="M-176 800C-8.76 885.498 69 1043.802 709 1043.802C1349 1043.802 1426.76 885.498 1594 800V1435H-176V800Z" fill="black"/>
    </g>

    <!-- Верхняя затемненная область -->
    <g filter="url(#filter20_f_762_41)">
      <path d="M1605 325C1437.76 241.467 1104.2 184.504 720 184.504C335.8 184.504 2.24002 241.467 -165 325V-185H1605V325Z" fill="black"/>
    </g>
  </g>

  <defs>
    <!-- Фильтр для полос -->
    <filter id="blur6" filterUnits="userSpaceOnUse" color-interpolation-filters="sRGB">
      <feFlood flood-opacity="0" result="BackgroundImageFix"/>
      <feBlend mode="normal" in="SourceGraphic" in2="BackgroundImageFix" result="shape"/>
      <feGaussianBlur stdDeviation="6" result="effect1_foregroundBlur_762_41"/>
    </filter>

    <!-- Фильтры для затемнений -->
    <filter id="filter19_f_762_41" x="-336" y="601" width="2090" height="955" filterUnits="userSpaceOnUse" color-interpolation-filters="sRGB">
      <feFlood flood-opacity="0" result="BackgroundImageFix"/>
      <feBlend mode="normal" in="SourceGraphic" in2="BackgroundImageFix" result="shape"/>
      <feGaussianBlur stdDeviation="80" result="effect1_foregroundBlur_762_41"/>
    </filter>

    <filter id="filter20_f_762_41" x="-325" y="-345" width="2090" height="830" filterUnits="userSpaceOnUse" color-interpolation-filters="sRGB">
      <feFlood flood-opacity="0" result="BackgroundImageFix"/>
      <feBlend mode="normal" in="SourceGraphic" in2="BackgroundImageFix" result="shape"/>
      <feGaussianBlur stdDeviation="80" result="effect1_foregroundBlur_762_41"/>
    </filter>

    <!-- Градиенты -->
    <linearGradient id="paint_linear_shared" x1="0" y1="0" x2="1" y2="0" gradientUnits="objectBoundingBox">
      <stop stop-opacity="0.46"/>
      <stop offset="0.5" stop-opacity="0.32"/>
      <stop offset="1" stop-opacity="0.22"/>
    </linearGradient>

    <radialGradient id="paint_radial" cx="0" cy="0" r="1" gradientUnits="userSpaceOnUse" gradientTransform="translate(2160 1800) scale(1450 1800)">
      <stop stop-opacity="0.22"/>
      <stop offset="1"/>
    </radialGradient>

    <clipPath id="clip0_762_41">
      <rect width="1440" height="1300" fill="white"/>
    </clipPath>
  </defs>
</svg>
