<svg width="230" height="24" viewBox="0 0 230 24" fill="none" xmlns="http://www.w3.org/2000/svg">
<g clip-path="url(#clip0_653_1710)">
<path d="M37.7025 12.0004C37.7025 6.57816 41.3044 2.44629 47.2218 2.44629C53.1134 2.44629 56.7411 6.57816 56.7411 12.0004C56.7411 17.4488 53.1134 21.5546 47.2218 21.5546C41.3044 21.5546 37.7025 17.4488 37.7025 12.0004ZM42.4996 12.0004C42.4996 15.3372 44.083 17.2743 47.2218 17.2743C50.3606 17.2743 51.9439 15.3372 51.9439 12.0004C51.9439 8.66365 50.3348 6.72654 47.2218 6.72654C44.083 6.72654 42.4996 8.68972 42.4996 12.0004Z" fill="#FDFDFD"/>
<path d="M17.3146 15.7673C17.3146 19.2605 14.9442 21.5546 9.09534 21.5546C2.67965 21.5546 0 18.8347 0 14.0641H4.83461C4.83461 16.671 5.84884 17.5921 9.1984 17.5921C11.4916 17.5921 12.4964 17.1229 12.4964 15.9759C12.4964 15.3242 11.9811 14.8289 10.9505 14.5682L4.86974 12.9519C1.72631 12.0917 0.747209 10.2408 0.747209 7.92069C0.747209 4.3493 3.37532 2.44629 8.14201 2.44629C13.8105 2.44629 16.6213 5.14569 16.6213 9.13419H11.8054C11.8054 7.15297 10.6928 6.33051 8.21931 6.33051C6.49299 6.33051 5.59119 6.77368 5.59119 7.81642C5.59119 8.33779 5.87461 8.78096 7.00831 9.09378L12.9087 10.5797C15.9233 11.3357 17.3146 13.0823 17.3146 15.7673Z" fill="#FDFDFD"/>
<path d="M23.461 2.82845V9.93674H31.5561V2.82845H36.2034V21.1724H31.5561V14.0641H23.461V21.1724H18.8138V2.82845H23.461Z" fill="#FDFDFD"/>
<path d="M61.838 2.82845L63.6088 16.5864L63.3746 19.9495H64.4989L64.7379 16.5864L65.7357 2.82845H75.255L76.2528 16.5864L76.4918 19.9495H77.6161L77.3819 16.5864L79.1527 2.82845H83.7999L81.4388 21.1724H72.313L71.0713 4.05138H69.9194L68.6777 21.1724H59.5519L57.1908 2.82845H61.838Z" fill="#FDFDFD"/>
<path d="M137.428 15.7934C137.17 19.2866 134.618 21.5546 128.792 21.5546C122.398 21.5546 119.901 18.8347 120.262 14.0641H125.079C124.899 16.671 125.827 17.5921 129.179 17.5921C131.499 17.5921 132.581 17.0968 132.607 15.9759C132.659 15.272 132.117 14.881 131.164 14.5682L126.188 12.978C123.378 12.0917 122.218 10.5015 122.398 7.9207C122.682 4.27109 125.492 2.44629 130.184 2.44629C135.856 2.44629 138.458 5.11962 138.2 9.13419H133.364C133.519 7.15297 132.453 6.33051 130.003 6.33051C128.225 6.33051 127.297 6.79975 127.245 7.81642C127.219 8.25959 127.374 8.72882 128.586 9.09378L133.381 10.5536C136.371 11.466 137.634 13.1344 137.428 15.7934Z" fill="#FDFDFD"/>
<path d="M171.458 15.7934C171.2 19.2866 168.648 21.5546 162.821 21.5546C156.428 21.5546 153.931 18.8347 154.292 14.0641H159.109C158.928 16.671 159.857 17.5921 163.208 17.5921C165.528 17.5921 166.611 17.0968 166.637 15.9759C166.688 15.272 166.147 14.881 165.193 14.5682L160.218 12.978C157.408 12.0917 156.248 10.5015 156.428 7.9207C156.712 4.27109 159.522 2.44629 164.214 2.44629C169.885 2.44629 172.487 5.11962 172.23 9.13419H167.394C167.548 7.15297 166.482 6.33051 164.033 6.33051C162.254 6.33051 161.326 6.79975 161.275 7.81642C161.249 8.25959 161.404 8.72882 162.615 9.09378L167.41 10.5536C170.401 11.466 171.664 13.1344 171.458 15.7934Z" fill="#FDFDFD"/>
<path d="M190.461 2.82845L189.655 6.95584H183.805L181.017 21.1724H176.37L179.158 6.95584H173.296L174.121 2.82845H190.461Z" fill="#FDFDFD"/>
<path d="M205.696 6.95584H195.948L195.363 9.93674H203.803L202.997 14.0641H194.554L193.969 17.045H203.747L202.941 21.1724H188.512L192.11 2.82845H206.502L205.696 6.95584Z" fill="#FDFDFD"/>
<path d="M215.099 19.9495H216.196L220.481 2.82845H230L226.402 21.1724H221.755L223.985 9.80298L225.957 4.05138H224.772L219.787 21.1724H211.018L212.889 4.05138H211.711L211.43 9.80298L209.2 21.1724H204.553L208.151 2.82845H217.67L215.099 19.9495Z" fill="#FDFDFD"/>
<path d="M145.2 12.8412H146.515L151.859 2.82845H156.506L150.51 14.0641L148.044 14.0641L146.65 21.1724H142.003L143.397 14.0641H140.71L139.267 2.82845H143.914L145.2 12.8412Z" fill="#FDFDFD"/>
<path d="M109.436 5.94268L94.5796 8.74201L92.6058 24L86.5 18.0955L88.4676 2.82803L103.327 0.0382166L109.436 5.94268Z" fill="#FDFDFD"/>
<path d="M94.5952 18.0573L109.452 15.258L111.426 0L117.531 5.90446L115.564 21.172L100.704 23.9618L94.5952 18.0573Z" fill="#FDFDFD"/>
</g>
<defs>
<clipPath id="clip0_653_1710">
<rect width="230" height="24" fill="white"/>
</clipPath>
</defs>
</svg>
