<svg viewBox="0 0 32 32" fill="none" xmlns="http://www.w3.org/2000/svg">
<path fill-rule="evenodd" clip-rule="evenodd" d="M16.0575 2C21.5948 2 24.8459 2.55985 27.1305 4.7793C29.4617 7.15708 30 10.3847 30 15.9217V16.0783C30 21.617 29.4617 24.8663 27.1305 27.2207C24.8442 29.4402 21.6165 30 16.0558 30H15.9442C10.3852 30 7.13407 29.4402 4.86947 27.2207C2.53822 24.843 2 21.6153 2 16.0783V15.9217C2 10.3847 2.53821 7.13374 4.86947 4.7793C7.15571 2.55984 10.3852 2 15.9458 2H16.0575ZM15.7767 5.33314C15.6701 5.33316 15.5818 5.41974 15.5768 5.52633C15.4319 9.3599 14.9453 11.6925 13.3125 13.3252C11.6814 14.9563 9.35366 15.4428 5.52653 15.5878C5.41993 15.5911 5.33333 15.6793 5.33333 15.7876V16.234C5.33333 16.3406 5.41993 16.429 5.52653 16.4341C9.35364 16.579 11.683 17.0671 13.3125 18.6965C14.942 20.3259 15.4286 22.6501 15.5752 26.4703C15.5785 26.5769 15.6668 26.6636 15.7751 26.6636H16.2233C16.3299 26.6636 16.4182 26.5769 16.4232 26.4703C16.5698 22.6501 17.0563 20.3259 18.6859 18.6965C20.317 17.0654 22.6446 16.579 26.4717 16.4341C26.5783 16.4307 26.665 16.3423 26.665 16.234V15.7876H26.6667C26.6667 15.681 26.58 15.5928 26.4733 15.5878C22.6462 15.4428 20.317 14.9546 18.6875 13.3252C17.0546 11.6925 16.5681 9.36155 16.4232 5.52633C16.4198 5.41975 16.3316 5.33317 16.2233 5.33314H15.7767Z" fill="#FCFCFC"/>
</svg>
