<svg width="24" height="24" viewBox="0 0 24 24" fill="none" xmlns="http://www.w3.org/2000/svg">
<path d="M20.9906 16.3475C20.8222 17.6323 20.1931 18.8123 19.2201 19.6681C18.2471 20.5238 16.9964 20.9971 15.7006 21C8.14624 21 2 14.8538 2 7.2994C2.00286 6.00361 2.47617 4.75294 3.33193 3.77992C4.18769 2.80691 5.36768 2.17776 6.65249 2.00945C6.98002 1.97313 7.3106 2.04209 7.59629 2.20632C7.88199 2.37055 8.10794 2.62152 8.24138 2.92282L10.1538 7.38503C10.253 7.61665 10.2927 7.86937 10.2695 8.12026C10.2462 8.37115 10.1606 8.61226 10.0206 8.82169L8.44118 11.2383C9.15636 12.6897 10.3348 13.8614 11.7902 14.5683L14.1783 12.9794C14.3875 12.8384 14.6292 12.753 14.8806 12.7314C15.132 12.7098 15.3847 12.7526 15.615 12.8558L20.0772 14.7586C20.3785 14.8921 20.6294 15.118 20.7937 15.4037C20.9579 15.6894 21.0269 16.02 20.9906 16.3475ZM13.9309 4.22628C15.0895 4.54281 16.1455 5.15595 16.9948 6.00521C17.844 6.85447 18.4572 7.91049 18.7737 9.06906C18.8157 9.23172 18.9103 9.37592 19.0429 9.47918C19.1754 9.58244 19.3383 9.63895 19.5063 9.63992C19.5739 9.63979 19.6412 9.63019 19.7061 9.61138C19.8029 9.58606 19.8936 9.54169 19.973 9.48086C20.0524 9.42003 20.1188 9.34398 20.1685 9.25714C20.2181 9.1703 20.2499 9.07444 20.262 8.97516C20.2741 8.87588 20.2662 8.77519 20.2389 8.67898C19.8584 7.26009 19.1112 5.96631 18.0724 4.92755C17.0337 3.88879 15.7399 3.14162 14.321 2.76108C14.2217 2.72491 14.116 2.70981 14.0106 2.71674C13.9051 2.72367 13.8023 2.75247 13.7086 2.80133C13.6149 2.85018 13.5324 2.91801 13.4663 3.00049C13.4003 3.08298 13.3521 3.17831 13.325 3.28042C13.2978 3.38253 13.2921 3.48919 13.3084 3.59359C13.3247 3.698 13.3626 3.79787 13.4196 3.88684C13.4766 3.97582 13.5515 4.05195 13.6395 4.11039C13.7276 4.16883 13.8268 4.2083 13.9309 4.22628ZM13.1413 7.1662C13.7853 7.34249 14.3722 7.68349 14.8444 8.15563C15.3165 8.62776 15.6575 9.21474 15.8338 9.85875C15.8743 10.0222 15.9685 10.1674 16.1014 10.2709C16.2342 10.3744 16.398 10.4303 16.5664 10.4296C16.6309 10.4302 16.6952 10.4206 16.7567 10.4011C16.8543 10.3768 16.946 10.3332 17.0265 10.2728C17.1069 10.2124 17.1745 10.1365 17.225 10.0495C17.2756 9.9626 17.3082 9.86639 17.3209 9.76661C17.3336 9.66683 17.3262 9.56551 17.299 9.46866C17.0587 8.56434 16.5837 7.73958 15.9221 7.07794C15.2604 6.4163 14.4357 5.94128 13.5313 5.701C13.4321 5.66483 13.3263 5.64973 13.2209 5.65666C13.1154 5.66359 13.0126 5.69239 12.9189 5.74125C12.8252 5.7901 12.7427 5.85793 12.6767 5.94041C12.6106 6.0229 12.5625 6.11823 12.5353 6.22034C12.5081 6.32245 12.5025 6.42911 12.5188 6.53351C12.535 6.63792 12.5729 6.73779 12.6299 6.82676C12.6869 6.91574 12.7618 6.99187 12.8498 7.05031C12.9379 7.10875 13.0371 7.14822 13.1413 7.1662Z" fill="white"/>
</svg>
