<svg viewBox="0 0 32 32" fill="none" xmlns="http://www.w3.org/2000/svg">
<path d="M26.2134 6.40191H26.1809L26.1795 6.40039L25.9478 6.44731C23.0568 7.13594 20.3074 8.19841 17.9359 9.48941C15.7862 10.4056 11.4903 12.303 5.0481 15.1816C4.00228 15.6084 3.45428 16.0256 3.4041 16.4333C3.34336 16.9375 3.77621 17.2181 4.46116 17.4774C4.74141 17.5835 5.06385 17.6861 5.41192 17.7988C5.50127 17.8278 5.5917 17.8572 5.68415 17.8877L5.69795 17.8923C5.72959 17.9028 5.7614 17.9134 5.79335 17.9241L5.69795 17.8923C5.69355 17.8909 5.68854 17.8892 5.68415 17.8877C6.66765 18.259 7.69925 18.5318 8.81877 18.6991C8.82677 18.7003 8.83477 18.7015 8.84277 18.7026C8.96982 18.7214 9.09803 18.7389 9.22744 18.755H9.23629C10.1395 18.7156 10.9688 18.3796 11.6255 17.8484C17.6447 13.6823 20.7516 11.5765 20.9464 11.5311L20.9435 11.5326C21.0025 11.5099 21.066 11.4963 21.1324 11.4963C21.2327 11.4963 21.3286 11.525 21.4054 11.5765C21.4747 11.6582 21.5175 11.7657 21.5175 11.8837C21.5175 11.917 21.5146 11.9488 21.5087 11.9776C21.398 12.4558 15.7444 17.7303 15.4182 18.0784C14.1757 19.4012 12.7604 20.214 14.943 21.6866C16.8305 22.9625 17.93 23.7767 19.875 25.0859C21.1176 25.9213 22.0916 26.9126 23.374 26.7901C23.9643 26.7356 24.5738 26.1665 24.8837 24.4669C25.6157 20.4531 27.0561 11.7581 27.3881 8.17268V8.1863C27.3955 8.08944 27.3984 7.99258 27.3984 7.8942C27.3984 7.67777 27.3822 7.46588 27.3527 7.28124V7.2767C27.3246 7.03454 27.2095 6.81963 27.0383 6.66676L27.0428 6.66979C26.8081 6.50028 26.5218 6.40191 26.2134 6.40191Z" fill="#FCFCFC"/>
<path fill-rule="evenodd" clip-rule="evenodd" d="M5.69795 17.8923C6.67771 18.2612 7.7041 18.5325 8.81877 18.6991C7.69925 18.5318 6.66765 18.259 5.68415 17.8877C5.5917 17.8572 5.50127 17.8278 5.41192 17.7988C5.50552 17.8292 5.60097 17.8602 5.69795 17.8923Z" fill="#FCFCFC"/>
</svg>