<svg viewBox="0 0 32 32" fill="none" xmlns="http://www.w3.org/2000/svg">
<path fill-rule="evenodd" clip-rule="evenodd" d="M4.77142 4.77142C3 6.54284 3 9.3939 3 15.096V16.104C3 21.8061 3 24.6572 4.77142 26.4286C6.54284 28.2 9.3939 28.2 15.096 28.2H16.104C21.8061 28.2 24.6572 28.2 26.4286 26.4286C28.2 24.6572 28.2 21.8061 28.2 16.104V15.096C28.2 9.3939 28.2 6.54284 26.4286 4.77142C24.6572 3 21.8061 3 16.104 3H15.096C9.3939 3 6.54284 3 4.77142 4.77142ZM7.25256 10.6651C7.38907 17.2171 10.665 21.1546 16.4086 21.1546H16.7341V17.4061C18.8446 17.6161 20.4405 19.1596 21.081 21.1546H24.0631C23.2441 18.1726 21.0915 16.5241 19.7475 15.8941C21.0915 15.1171 22.9815 13.2271 23.433 10.6651H20.7239C20.1359 12.7441 18.3931 14.6341 16.7341 14.8125V10.6651H14.025V17.9311C12.345 17.5111 10.2241 15.4741 10.1296 10.6651H7.25256Z" fill="#FCFCFC"/>
</svg>
