<svg viewBox="0 0 1248 120" fill="none" xmlns="http://www.w3.org/2000/svg">
<path d="M242.7 60C242.7 25.9482 265.887 0 303.978 0C341.905 0 365.257 25.9482 365.257 60C365.257 94.2156 341.905 120 303.978 120C265.887 120 242.7 94.2156 242.7 60ZM273.581 60C273.581 80.955 283.773 93.12 303.978 93.12C324.184 93.12 334.376 80.955 334.376 60C334.376 39.045 324.018 26.88 303.978 26.88C283.773 26.88 273.581 39.2087 273.581 60Z" fill="white" fill-opacity="0.04"/>
<path d="M111.459 83.6562C111.459 105.593 96.1995 120 58.549 120C17.2496 120 0 102.919 0 72.96H31.1216C31.1216 89.3311 37.6505 95.116 59.2124 95.116C73.9741 95.116 80.4427 92.1692 80.4427 84.9659C80.4427 80.8731 77.1255 77.7626 70.491 76.1255L31.3478 65.9754C11.1127 60.573 4.80997 48.9495 4.80997 34.3793C4.80997 11.9509 21.7278 0 52.4121 0C88.9016 0 106.996 16.9523 106.996 42H75.9946C75.9946 29.558 68.8324 24.3929 52.9097 24.3929C41.797 24.3929 35.9919 27.176 35.9919 33.7244C35.9919 36.9986 37.8164 39.7817 45.1143 41.7462L83.0965 51.0778C102.502 55.8254 111.459 66.794 111.459 83.6562Z" fill="white" fill-opacity="0.04"/>
<path d="M151.024 2.4V47.04H203.135V2.4H233.05V117.6H203.135V72.96H151.024V117.6H121.109V2.4H151.024Z" fill="white" fill-opacity="0.04"/>
<path d="M398.067 2.4L409.466 88.7999L407.958 109.92H415.196L416.734 88.7999L423.157 2.4H484.435L490.859 88.7999L492.397 109.92H499.634L498.126 88.7999L509.526 2.4H539.441L524.242 117.6H465.497L457.504 10.08H450.089L442.095 117.6H383.35L368.152 2.4H398.067Z" fill="white" fill-opacity="0.04"/>
<path d="M652.091 83.8199C650.432 105.757 634.003 120 596.498 120C555.341 120 539.266 102.919 541.589 72.96H572.599C571.437 89.3311 577.413 95.116 598.987 95.116C613.923 95.116 620.893 92.0055 621.058 84.9659C621.39 80.5457 617.905 78.09 611.765 76.1255L579.736 66.1392C561.648 60.573 554.18 50.5866 555.341 34.3793C557.167 11.4598 575.256 0 605.459 0C641.968 0 658.72 16.7885 657.06 42H625.93C626.926 29.558 620.063 24.3929 604.297 24.3929C592.847 24.3929 586.872 27.3397 586.54 33.7244C586.374 36.5075 587.37 39.4543 595.17 41.7463L626.037 50.9141C645.287 56.6439 653.419 67.1214 652.091 83.8199Z" fill="white" fill-opacity="0.04"/>
<path d="M871.149 83.8199C869.489 105.757 853.06 120 815.555 120C774.399 120 758.323 102.919 760.647 72.96H791.656C790.494 89.3311 796.471 95.116 818.044 95.116C832.98 95.116 839.95 92.0055 840.116 84.9659C840.448 80.5457 836.963 78.09 830.823 76.1255L798.794 66.1392C780.705 60.573 773.237 50.5866 774.399 34.3793C776.224 11.4598 794.313 0 824.516 0C861.026 0 877.777 16.7885 876.118 42H844.988C845.983 29.558 839.12 24.3929 823.355 24.3929C811.904 24.3929 805.93 27.3397 805.598 33.7244C805.432 36.5075 806.428 39.4543 814.227 41.7463L845.094 50.9141C864.345 56.6439 872.477 67.1214 871.149 83.8199Z" fill="white" fill-opacity="0.04"/>
<path d="M993.478 2.4L988.292 28.32H950.632L932.683 117.6H902.767L920.717 28.32H882.985L888.292 2.4H993.478Z" fill="white" fill-opacity="0.04"/>
<path d="M1091.55 28.32H1028.8L1025.03 47.04H1079.36L1074.18 72.96H1019.82L1016.06 91.68H1079L1073.82 117.6H980.933L1004.09 2.4H1096.73L1091.55 28.32Z" fill="white" fill-opacity="0.04"/>
<path d="M1152.08 109.92H1159.14L1186.72 2.4H1248L1224.84 117.6H1194.92L1209.28 46.2L1221.97 10.08H1214.35L1182.26 117.6H1125.81L1137.85 10.08H1130.27L1128.46 46.2L1114.1 117.6H1084.19L1107.35 2.4H1168.63L1152.08 109.92Z" fill="white" fill-opacity="0.04"/>
<path d="M702.12 65.28H710.589L744.988 2.4H774.903L736.303 72.9599L720.429 72.96L711.454 117.6H681.539L690.513 72.96H673.215L663.927 2.4H693.843L702.12 65.28Z" fill="white" fill-opacity="0.04"/>
</svg>
